# xmcd CD database file
#
# Track frame offsets:
#	150
#	22395
#	42442
#	67447
#	94674
#	122629
#	151744
#	184421
#	212423
#	231483
#	256938
#	284410
#	311152
#
# Disc length: 4555 seconds
#
# Revision: 0
# Processed by: cddbd v1.5.2PL0 Copyright (c) Steve Scherf et al.
# Submitted via: CDex 1.51
#
DISCID=c711c90d
DTITLE=Luca Sestak - New Way
DYEAR=2014
DGENRE=Blues
TTITLE0=James Weber Breakdown
TTITLE1=Walk With The Devil
TTITLE2=Laci's Boogie
TTITLE3=For Her
TTITLE4=Blame Game
TTITLE5=47's Theme
TTITLE6=Frederic's Dream
TTITLE7=Joogie Wazz
TTITLE8=Dr.James
TTITLE9=Maymories
TTITLE10=Put Out The Light
TTITLE11=Key Engine
TTITLE12=Oh Holy Night - Cantique Nöel
EXTD=YEAR: 2014
EXTT0=
EXTT1=
EXTT2=
EXTT3=
EXTT4=
EXTT5=
EXTT6=
EXTT7=
EXTT8=
EXTT9=
EXTT10=
EXTT11=
EXTT12=
PLAYORDER=
